<svg xmlns="http://www.w3.org/2000/svg" viewBox="0 0 420 620" width="420" height="620">
  <defs><linearGradient id="bg" x1="0" y1="0" x2="1" y2="1"><stop offset="0%" stop-color="#061116"/><stop offset="100%" stop-color="#020507"/></linearGradient><linearGradient id="hair" x1="0" y1="0" x2="1" y2="1"><stop offset="0%" stop-color="#b8ffff"/><stop offset="50%" stop-color="#29bcc4"/><stop offset="100%" stop-color="#0c3840"/></linearGradient></defs>
  <rect width="420" height="620" fill="url(#bg)"/><ellipse cx="210" cy="200" rx="170" ry="180" fill="#7dd7dd" opacity="0.08"/>
  <path d="M44 620 Q60 474 120 414 Q164 374 210 370 Q256 374 300 414 Q360 474 376 620 Z" fill="#041014"/>
  <path d="M74 620 Q90 468 148 426 Q182 402 210 398 Q240 402 272 426 Q330 468 346 620 Z" fill="#123940"/>
  <path d="M132 620 Q148 520 188 476 Q202 464 218 476 Q258 520 278 620 Z" fill="#d8f7f8"/>
  <path d="M188 338 L188 392 L232 392 L232 338 Z" fill="#efd8c4"/>
  <ellipse cx="210" cy="266" rx="86" ry="98" fill="#efd8c4"/>
  <path d="M124 248 Q108 156 154 92 Q206 42 266 76 Q312 122 296 248 Q252 214 210 212 Q168 214 124 248 Z" fill="url(#hair)"/>
  <path d="M124 248 Q98 294 108 378 Q112 446 126 520 Q112 454 118 326 Q120 276 136 250 Z" fill="#1aa8b4"/>
  <path d="M296 248 Q322 294 312 378 Q308 446 294 520 Q308 454 302 326 Q300 276 284 250 Z" fill="#1aa8b4"/>
  <path d="M148 194 Q170 150 212 156 Q204 194 168 208 Z" fill="#c0ffff"/>
  <path d="M196 188 Q224 148 266 164 Q256 196 222 210 Z" fill="#59d9df"/>
  <path d="M162 218 Q178 210 196 214" stroke="#0d5660" stroke-width="4" stroke-linecap="round"/><path d="M228 214 Q246 210 260 218" stroke="#0d5660" stroke-width="4" stroke-linecap="round"/>
  <ellipse cx="178" cy="246" rx="22" ry="19" fill="#041114"/><ellipse cx="178" cy="246" rx="18" ry="15" fill="#48d3de"/><ellipse cx="178" cy="246" rx="11" ry="10" fill="#0f6670"/><ellipse cx="171" cy="239" rx="4" ry="3" fill="#fff"/>
  <ellipse cx="242" cy="246" rx="22" ry="19" fill="#041114"/><ellipse cx="242" cy="246" rx="18" ry="15" fill="#48d3de"/><ellipse cx="242" cy="246" rx="11" ry="10" fill="#0f6670"/><ellipse cx="235" cy="239" rx="4" ry="3" fill="#fff"/>
  <path d="M204 286 Q210 294 216 286" stroke="#bf9580" stroke-width="3" fill="none" stroke-linecap="round"/>
  <path d="M178 318 Q194 306 210 308 Q228 306 244 318" stroke="#bb7268" stroke-width="4" fill="none" stroke-linecap="round"/>
  <rect y="568" width="420" height="52" fill="#020507" opacity="0.94"/>
  <text x="210" y="590" text-anchor="middle" font-family="monospace" font-size="18" fill="#7dd7dd" letter-spacing="6">VEX</text>
  <text x="210" y="608" text-anchor="middle" font-family="monospace" font-size="11" fill="#6a9598" letter-spacing="4">PULSE CLUB MASTER</text>
</svg>
