<svg xmlns="http://www.w3.org/2000/svg" viewBox="0 0 200 300" width="200" height="300">
  <defs>
    <radialGradient id="bg_zeno" cx="50%" cy="30%" r="70%">
      <stop offset="0%" stop-color="#12101a"/>
      <stop offset="100%" stop-color="#06060c"/>
    </radialGradient>
    <radialGradient id="skin_zeno" cx="50%" cy="40%" r="60%">
      <stop offset="0%" stop-color="#f8e8d4"/>
      <stop offset="100%" stop-color="#e4ceb8"/>
    </radialGradient>
    <linearGradient id="hair_zeno" x1="0%" y1="0%" x2="100%" y2="100%">
      <stop offset="0%" stop-color="#f8f0e0"/>
      <stop offset="50%" stop-color="#d4c8a0"/>
      <stop offset="100%" stop-color="#8a8060"/>
    </linearGradient>
    <radialGradient id="crown_glow" cx="50%" cy="50%" r="50%">
      <stop offset="0%" stop-color="#f0c67c" stop-opacity="0.8"/>
      <stop offset="100%" stop-color="#f0c67c" stop-opacity="0"/>
    </radialGradient>
  </defs>

  <!-- Background -->
  <rect width="200" height="300" fill="url(#bg_zeno)"/>
  <ellipse cx="100" cy="110" rx="80" ry="90" fill="#f0c67c" opacity="0.06"/>
  <!-- Prestige particles -->
  <ellipse cx="40" cy="40" rx="3" ry="3" fill="#f0c67c" opacity="0.3"/>
  <ellipse cx="160" cy="35" rx="2" ry="2" fill="#f0c67c" opacity="0.25"/>
  <ellipse cx="25" cy="100" rx="2" ry="2" fill="#f0c67c" opacity="0.2"/>
  <ellipse cx="175" cy="90" rx="2.5" ry="2.5" fill="#f0c67c" opacity="0.2"/>
  <ellipse cx="155" cy="170" rx="1.5" ry="1.5" fill="#f0c67c" opacity="0.15"/>

  <!-- Faction accent bar -->
  <rect x="0" y="0" width="200" height="3" fill="#f0c67c" opacity="0.9"/>

  <!-- Body - regal championship attire -->
  <path d="M 26 300 Q 40 234 65 212 Q 85 198 100 196 Q 115 198 135 212 Q 160 234 174 300 Z" fill="#0e0c14"/>
  <!-- Championship jacket - white/gold -->
  <path d="M 65 212 Q 85 200 100 198 Q 115 200 135 212 L 129 237 Q 112 224 100 222 Q 88 224 71 237 Z" fill="#e8e0cc"/>
  <!-- Gold trim -->
  <path d="M 65 212 Q 70 210 71 237" stroke="#f0c67c" stroke-width="2" fill="none" opacity="0.8"/>
  <path d="M 135 212 Q 130 210 129 237" stroke="#f0c67c" stroke-width="2" fill="none" opacity="0.8"/>
  <path d="M 65 212 Q 85 204 100 202 Q 115 204 135 212" stroke="#f0c67c" stroke-width="1.5" fill="none" opacity="0.5"/>
  <path d="M 90 198 L 100 224 L 110 198" fill="#f0c67c" opacity="0.4"/>
  <!-- Championship badge -->
  <polygon points="100,205 103,212 110,212 105,216 107,223 100,219 93,223 95,216 90,212 97,212" fill="#f0c67c" opacity="0.65" transform="scale(0.55) translate(82,170)"/>
  <path d="M 71 237 Q 89 227 100 225 Q 111 227 129 237 L 123 263 Q 105 254 100 252 Q 95 254 77 263 Z" fill="#0c0a12"/>

  <!-- Neck -->
  <path d="M 88 190 L 88 212 L 112 212 L 112 190 Z" fill="url(#skin_zeno)"/>

  <!-- Head -->
  <ellipse cx="100" cy="154" rx="43" ry="47" fill="url(#skin_zeno)"/>

  <!-- Hair - silver/platinum long and elegant -->
  <!-- Back layer long -->
  <path d="M 56 164 Q 48 198 50 250 Q 52 274 58 290 Q 50 264 52 228 Q 54 196 60 168 Z" fill="#8a8060"/>
  <path d="M 144 164 Q 152 198 150 250 Q 148 274 142 290 Q 150 264 148 228 Q 146 196 140 168 Z" fill="#8a8060"/>
  <!-- Main hair -->
  <path d="M 58 148 Q 53 118 57 88 Q 63 58 82 46 Q 100 37 118 46 Q 137 58 143 88 Q 147 118 142 148 Q 124 130 100 128 Q 76 130 58 148 Z" fill="url(#hair_zeno)"/>
  <!-- Long side hair elegant waves -->
  <path d="M 58 148 Q 52 174 53 214 Q 54 248 60 266 Q 54 240 56 210 Q 58 180 62 160 Z" fill="#d4c8a0"/>
  <path d="M 142 148 Q 148 174 147 214 Q 146 248 140 266 Q 146 240 144 210 Q 142 180 138 160 Z" fill="#d4c8a0"/>
  <!-- Elegant swept bangs -->
  <path d="M 62 140 Q 60 118 66 104 Q 72 90 80 86 Q 88 82 92 88 Q 95 94 90 106 Q 85 116 78 124 Q 68 134 64 142 Z" fill="#f0e8d0"/>
  <path d="M 86 128 Q 90 106 98 100 Q 104 96 108 102 Q 110 110 106 122 Q 102 130 96 134 Z" fill="#dcd0b0"/>
  <path d="M 104 126 Q 110 106 118 100 Q 125 96 128 104 Q 128 114 122 124 Q 116 130 110 132 Z" fill="#f0e8d0"/>
  <!-- Hair shine - prominent platinum gleam -->
  <ellipse cx="90" cy="66" rx="20" ry="8" fill="white" opacity="0.35" transform="rotate(-10 90 66)"/>
  <ellipse cx="106" cy="72" rx="10" ry="4" fill="white" opacity="0.2" transform="rotate(-10 106 72)"/>
  <!-- Crown/tiara accent -->
  <path d="M 74 96 L 78 88 L 84 95 L 90 82 L 96 95 L 100 80 L 104 95 L 110 82 L 116 95 L 122 88 L 126 96" stroke="#f0c67c" stroke-width="1.8" fill="none" opacity="0.8"/>
  <ellipse cx="100" cy="80" rx="3.5" ry="3.5" fill="#f0c67c" opacity="0.7"/>
  <ellipse cx="90" cy="82" rx="2" ry="2" fill="#f0c67c" opacity="0.5"/>
  <ellipse cx="110" cy="82" rx="2" ry="2" fill="#f0c67c" opacity="0.5"/>

  <!-- Eyebrows - elegant, calm authority -->
  <path d="M 76 128 Q 85 124 93 127" stroke="#706040" stroke-width="1.7" fill="none" stroke-linecap="round"/>
  <path d="M 107 127 Q 115 124 124 128" stroke="#706040" stroke-width="1.7" fill="none" stroke-linecap="round"/>

  <!-- Eyes - gold/amber, serene intensity -->
  <ellipse cx="85" cy="140" rx="11" ry="9" fill="#0c0a08"/>
  <ellipse cx="85" cy="140" rx="10" ry="8" fill="#c8a030"/>
  <ellipse cx="85" cy="140" rx="7" ry="6.5" fill="#906010"/>
  <ellipse cx="85" cy="140" rx="4" ry="4" fill="#080604"/>
  <ellipse cx="82" cy="137" rx="2.5" ry="2" fill="white" opacity="0.9"/>
  <ellipse cx="88" cy="143" rx="1.2" ry="1.2" fill="white" opacity="0.4"/>
  <path d="M 74 131 Q 85 127 96 131" stroke="#403020" stroke-width="1.8" fill="none"/>
  <path d="M 75 148 Q 85 152 95 148" stroke="#403020" stroke-width="0.9" fill="none"/>

  <ellipse cx="115" cy="140" rx="11" ry="9" fill="#0c0a08"/>
  <ellipse cx="115" cy="140" rx="10" ry="8" fill="#c8a030"/>
  <ellipse cx="115" cy="140" rx="7" ry="6.5" fill="#906010"/>
  <ellipse cx="115" cy="140" rx="4" ry="4" fill="#080604"/>
  <ellipse cx="112" cy="137" rx="2.5" ry="2" fill="white" opacity="0.9"/>
  <ellipse cx="118" cy="143" rx="1.2" ry="1.2" fill="white" opacity="0.4"/>
  <path d="M 104 131 Q 115 127 126 131" stroke="#403020" stroke-width="1.8" fill="none"/>
  <path d="M 105 148 Q 115 152 125 148" stroke="#403020" stroke-width="0.9" fill="none"/>

  <!-- Nose -->
  <path d="M 97 155 Q 100 158 103 155" stroke="#c0a888" stroke-width="1.1" fill="none" stroke-linecap="round"/>

  <!-- Mouth - serene, composed authority -->
  <path d="M 88 168 Q 94 165 100 166 Q 106 165 112 168" stroke="#b09080" stroke-width="1.4" fill="none" stroke-linecap="round"/>
  <path d="M 91 170 Q 100 174 109 170" stroke="#c8a890" stroke-width="0.8" fill="none"/>

  <!-- Blush - refined, near none -->
  <ellipse cx="74" cy="157" rx="8" ry="5" fill="#f0c67c" opacity="0.1"/>
  <ellipse cx="126" cy="157" rx="8" ry="5" fill="#f0c67c" opacity="0.1"/>

  <!-- Ears -->
  <ellipse cx="58" cy="152" rx="5" ry="7" fill="#e4ceb8"/>
  <ellipse cx="142" cy="152" rx="5" ry="7" fill="#e4ceb8"/>
  <!-- Gold earring -->
  <ellipse cx="58" cy="160" rx="3.5" ry="3.5" fill="#f0c67c" opacity="0.7"/>
  <ellipse cx="142" cy="160" rx="3.5" ry="3.5" fill="#f0c67c" opacity="0.7"/>

  <!-- Name plate -->
  <rect x="0" y="270" width="200" height="30" fill="#06060c" opacity="0.9"/>
  <rect x="0" y="270" width="200" height="1" fill="#f0c67c" opacity="0.7"/>
  <text x="100" y="284" text-anchor="middle" font-family="monospace" font-size="9" fill="#f0c67c" letter-spacing="3">ZENO</text>
  <text x="100" y="295" text-anchor="middle" font-family="monospace" font-size="7" fill="#887850" letter-spacing="2">GRAND LEAGUE CHAMPION</text>
</svg>
