<svg xmlns="http://www.w3.org/2000/svg" viewBox="0 0 200 300" width="200" height="300">
  <defs><linearGradient id="kbg" x1="0" y1="0" x2="1" y2="1"><stop offset="0%" stop-color="#17080c"/><stop offset="100%" stop-color="#060406"/></linearGradient><linearGradient id="khair" x1="0" y1="0" x2="1" y2="1"><stop offset="0%" stop-color="#ff9dbf"/><stop offset="48%" stop-color="#cf476a"/><stop offset="100%" stop-color="#4e0d22"/></linearGradient></defs>
  <rect width="200" height="300" fill="url(#kbg)"/><ellipse cx="104" cy="110" rx="84" ry="92" fill="#cf6547" opacity="0.12"/><rect width="200" height="4" fill="#cf6547"/>
  <path d="M24 300 Q34 244 60 216 Q82 198 102 196 Q126 198 146 216 Q170 244 176 300 Z" fill="#12060a"/>
  <path d="M42 300 Q56 236 86 214 Q100 206 120 214 Q148 236 160 300 Z" fill="#69122c"/>
  <path d="M70 300 Q80 248 94 236 Q100 230 112 236 Q126 248 136 300 Z" fill="#f2c0ce"/>
  <path d="M88 190 L88 214 L112 214 L112 190 Z" fill="#f0ccb8"/>
  <ellipse cx="100" cy="152" rx="42" ry="48" fill="#f0ccb8"/>
  <path d="M58 148 Q52 100 76 66 Q100 42 128 62 Q148 82 140 148 Q120 134 100 130 Q80 134 58 148 Z" fill="url(#khair)"/>
  <path d="M60 146 Q44 176 52 224 Q56 250 64 270 Q56 232 60 176 Q62 160 70 146 Z" fill="#c84167"/>
  <path d="M140 146 Q156 176 148 224 Q144 250 136 270 Q144 232 140 176 Q138 160 130 146 Z" fill="#c84167"/>
  <path d="M70 120 Q86 92 110 98 Q100 118 84 128 Z" fill="#ffb2cb"/>
  <path d="M92 118 Q106 94 126 100 Q126 118 108 126 Z" fill="#f06a98"/>
  <path d="M76 130 Q84 124 92 126" stroke="#5b1026" stroke-width="2" stroke-linecap="round"/><path d="M108 126 Q116 124 124 130" stroke="#5b1026" stroke-width="2" stroke-linecap="round"/>
  <ellipse cx="84" cy="142" rx="10" ry="9" fill="#21070f"/><ellipse cx="84" cy="142" rx="8" ry="7" fill="#ef6a97"/><ellipse cx="84" cy="142" rx="5" ry="5" fill="#7d173d"/><ellipse cx="81" cy="139" rx="2" ry="1.5" fill="#fff"/>
  <ellipse cx="116" cy="142" rx="10" ry="9" fill="#21070f"/><ellipse cx="116" cy="142" rx="8" ry="7" fill="#ef6a97"/><ellipse cx="116" cy="142" rx="5" ry="5" fill="#7d173d"/><ellipse cx="113" cy="139" rx="2" ry="1.5" fill="#fff"/>
  <path d="M98 154 Q100 158 102 154" stroke="#bc8d7d" stroke-width="1.2" fill="none" stroke-linecap="round"/>
  <path d="M88 168 Q94 163 100 164 Q106 163 112 168" stroke="#d56f7f" stroke-width="1.6" fill="none" stroke-linecap="round"/>
  <ellipse cx="76" cy="156" rx="8" ry="5" fill="#ff8ba9" opacity="0.26"/><ellipse cx="124" cy="156" rx="8" ry="5" fill="#ff8ba9" opacity="0.26"/>
  <rect y="270" width="200" height="30" fill="#070406" opacity="0.94"/>
  <text x="100" y="284" text-anchor="middle" font-family="monospace" font-size="9" fill="#ff8ba9" letter-spacing="3">KAIZEN</text>
  <text x="100" y="295" text-anchor="middle" font-family="monospace" font-size="7" fill="#9e6675" letter-spacing="2">RIVAL DUELIST</text>
</svg>
