<svg xmlns="http://www.w3.org/2000/svg" viewBox="0 0 200 300" width="200" height="300">
  <defs><linearGradient id="mbg" x1="0" y1="0" x2="1" y2="1"><stop offset="0%" stop-color="#07111a"/><stop offset="100%" stop-color="#020609"/></linearGradient><linearGradient id="mhair" x1="0" y1="0" x2="1" y2="1"><stop offset="0%" stop-color="#b9ebff"/><stop offset="50%" stop-color="#4b9aca"/><stop offset="100%" stop-color="#0b3550"/></linearGradient></defs>
  <rect width="200" height="300" fill="url(#mbg)"/><ellipse cx="100" cy="112" rx="82" ry="94" fill="#76b7ff" opacity="0.1"/><rect width="200" height="4" fill="#76b7ff"/>
  <path d="M24 300 Q36 244 60 214 Q82 198 100 196 Q122 198 144 214 Q168 244 176 300 Z" fill="#061018"/>
  <path d="M40 300 Q58 236 82 214 Q100 204 118 214 Q144 236 160 300 Z" fill="#1d4870"/>
  <path d="M64 300 Q76 248 94 232 Q100 228 106 232 Q124 248 136 300 Z" fill="#dbe7ef"/>
  <path d="M88 190 L88 214 L112 214 L112 190 Z" fill="#ead9c6"/>
  <ellipse cx="100" cy="152" rx="42" ry="48" fill="#ead9c6"/>
  <path d="M60 148 Q54 98 76 64 Q100 42 126 60 Q146 78 140 148 Q122 132 100 130 Q78 132 60 148 Z" fill="url(#mhair)"/>
  <path d="M60 144 Q46 178 54 232 Q58 252 66 272 Q58 236 62 176 Q64 156 70 144 Z" fill="#2f7ea8"/>
  <path d="M140 144 Q154 178 146 232 Q142 252 134 272 Q142 236 138 176 Q136 156 130 144 Z" fill="#2f7ea8"/>
  <path d="M70 120 Q80 100 90 96 Q98 98 94 110 Q90 120 82 126 Z" fill="#d0f0ff"/>
  <path d="M94 120 Q102 100 110 98 Q116 102 112 116 Q106 122 100 126 Z" fill="#87cbe8"/>
  <path d="M112 120 Q120 102 128 102 Q134 108 130 120 Q124 126 116 128 Z" fill="#bcecff"/>
  <path d="M76 130 Q84 126 92 128" stroke="#27516d" stroke-width="2" stroke-linecap="round"/><path d="M108 128 Q116 126 124 130" stroke="#27516d" stroke-width="2" stroke-linecap="round"/>
  <ellipse cx="84" cy="142" rx="10.5" ry="9" fill="#08131e"/><ellipse cx="84" cy="142" rx="8.5" ry="7.3" fill="#58acd7"/><ellipse cx="84" cy="142" rx="5.5" ry="5.2" fill="#174f73"/><ellipse cx="81" cy="139" rx="2" ry="1.5" fill="#fff"/>
  <ellipse cx="116" cy="142" rx="10.5" ry="9" fill="#08131e"/><ellipse cx="116" cy="142" rx="8.5" ry="7.3" fill="#58acd7"/><ellipse cx="116" cy="142" rx="5.5" ry="5.2" fill="#174f73"/><ellipse cx="113" cy="139" rx="2" ry="1.5" fill="#fff"/>
  <path d="M98 154 Q100 158 102 154" stroke="#bb9d86" stroke-width="1.2" fill="none" stroke-linecap="round"/>
  <path d="M88 168 Q94 165 100 166 Q106 165 112 168" stroke="#a77a68" stroke-width="1.5" fill="none" stroke-linecap="round"/>
  <rect y="270" width="200" height="30" fill="#020609" opacity="0.94"/>
  <text x="100" y="284" text-anchor="middle" font-family="monospace" font-size="9" fill="#76b7ff" letter-spacing="3">MAYA</text>
  <text x="100" y="295" text-anchor="middle" font-family="monospace" font-size="7" fill="#63839a" letter-spacing="2">TIDE CLUB MASTER</text>
</svg>
