<svg xmlns="http://www.w3.org/2000/svg" viewBox="0 0 200 300" width="200" height="300">
  <defs><linearGradient id="vbg" x1="0" y1="0" x2="1" y2="1"><stop offset="0%" stop-color="#071116"/><stop offset="100%" stop-color="#020507"/></linearGradient><linearGradient id="vhair" x1="0" y1="0" x2="1" y2="1"><stop offset="0%" stop-color="#9dfcff"/><stop offset="48%" stop-color="#26b8c0"/><stop offset="100%" stop-color="#0c3940"/></linearGradient></defs>
  <rect width="200" height="300" fill="url(#vbg)"/><ellipse cx="100" cy="110" rx="82" ry="92" fill="#7dd7dd" opacity="0.1"/><rect width="200" height="4" fill="#7dd7dd"/>
  <path d="M24 300 Q36 244 60 214 Q82 196 100 194 Q122 196 144 214 Q168 244 176 300 Z" fill="#041014"/>
  <path d="M42 300 Q58 234 86 212 Q100 206 118 212 Q144 234 160 300 Z" fill="#123940"/>
  <path d="M70 300 Q82 248 98 234 Q100 232 110 234 Q126 248 136 300 Z" fill="#d7f6f8"/>
  <path d="M88 188 L88 212 L112 212 L112 188 Z" fill="#efd8c4"/>
  <ellipse cx="100" cy="150" rx="42" ry="48" fill="#efd8c4"/>
  <path d="M58 148 Q54 100 80 64 Q102 42 126 58 Q148 80 140 148 Q120 132 100 130 Q80 132 58 148 Z" fill="url(#vhair)"/>
  <path d="M60 146 Q48 178 56 230 Q58 252 66 272 Q58 234 62 176 Q64 156 70 146 Z" fill="#1aa8b4"/>
  <path d="M140 146 Q152 178 144 230 Q142 252 134 272 Q142 234 138 176 Q136 156 130 146 Z" fill="#1aa8b4"/>
  <path d="M74 120 Q88 92 110 96 Q106 118 86 126 Z" fill="#c0ffff"/>
  <path d="M100 120 Q118 92 130 104 Q126 122 110 128 Z" fill="#59d9df"/>
  <path d="M76 128 Q84 124 92 126" stroke="#0d5660" stroke-width="2" stroke-linecap="round"/><path d="M108 126 Q116 124 124 128" stroke="#0d5660" stroke-width="2" stroke-linecap="round"/>
  <ellipse cx="84" cy="140" rx="10" ry="9" fill="#041114"/><ellipse cx="84" cy="140" rx="8" ry="7" fill="#48d3de"/><ellipse cx="84" cy="140" rx="5" ry="5" fill="#0f6670"/><ellipse cx="81" cy="137" rx="2" ry="1.5" fill="#fff"/>
  <ellipse cx="116" cy="140" rx="10" ry="9" fill="#041114"/><ellipse cx="116" cy="140" rx="8" ry="7" fill="#48d3de"/><ellipse cx="116" cy="140" rx="5" ry="5" fill="#0f6670"/><ellipse cx="113" cy="137" rx="2" ry="1.5" fill="#fff"/>
  <path d="M98 154 Q100 158 102 154" stroke="#bf9580" stroke-width="1.2" fill="none" stroke-linecap="round"/>
  <path d="M88 166 Q94 162 100 163 Q106 162 112 166" stroke="#bb7268" stroke-width="1.4" fill="none" stroke-linecap="round"/>
  <rect y="270" width="200" height="30" fill="#020507" opacity="0.94"/>
  <text x="100" y="284" text-anchor="middle" font-family="monospace" font-size="9" fill="#7dd7dd" letter-spacing="3">VEX</text>
  <text x="100" y="295" text-anchor="middle" font-family="monospace" font-size="7" fill="#6a9598" letter-spacing="2">PULSE CLUB MASTER</text>
</svg>
