<svg xmlns="http://www.w3.org/2000/svg" viewBox="0 0 200 300" width="200" height="300">
  <defs>
    <linearGradient id="lucyBg" x1="0" y1="0" x2="1" y2="1">
      <stop offset="0%" stop-color="#201208"/>
      <stop offset="100%" stop-color="#090507"/>
    </linearGradient>
    <linearGradient id="lucyHair" x1="0" y1="0" x2="1" y2="1">
      <stop offset="0%" stop-color="#ffd16a"/>
      <stop offset="55%" stop-color="#d68d26"/>
      <stop offset="100%" stop-color="#844200"/>
    </linearGradient>
  </defs>
  <rect width="200" height="300" fill="url(#lucyBg)"/>
  <ellipse cx="100" cy="112" rx="88" ry="94" fill="#f0c67c" opacity="0.1"/>
  <rect width="200" height="4" fill="#f0c67c"/>
  <path d="M28 300 Q34 248 58 220 Q76 202 100 200 Q124 202 142 220 Q166 248 172 300 Z" fill="#120b08"/>
  <path d="M48 300 Q58 232 84 214 Q100 205 116 214 Q142 232 152 300 Z" fill="#c47a12" opacity="0.85"/>
  <path d="M66 300 Q74 246 92 234 Q100 229 108 234 Q126 246 134 300 Z" fill="#f4d8a1"/>
  <path d="M88 190 L88 214 L112 214 L112 190 Z" fill="#efc793"/>
  <ellipse cx="100" cy="152" rx="42" ry="48" fill="#efc793"/>
  <path d="M58 146 Q52 96 76 64 Q100 42 126 62 Q146 80 142 146 Q124 132 100 130 Q76 132 58 146 Z" fill="url(#lucyHair)"/>
  <path d="M58 142 Q50 164 54 210 Q56 242 64 266 Q58 232 62 182 Q64 162 70 144 Z" fill="#b96d12"/>
  <path d="M142 142 Q150 164 146 210 Q144 242 136 266 Q142 232 138 182 Q136 162 130 144 Z" fill="#b96d12"/>
  <path d="M68 118 Q72 102 82 96 Q92 94 92 106 Q90 118 80 124 Z" fill="#ffe092"/>
  <path d="M92 118 Q96 98 104 96 Q112 98 110 112 Q106 120 98 124 Z" fill="#f9c356"/>
  <path d="M108 118 Q116 100 126 102 Q132 108 128 120 Q122 126 114 128 Z" fill="#ffd97b"/>
  <path d="M76 130 Q84 126 92 128" stroke="#6b3800" stroke-width="2" stroke-linecap="round"/>
  <path d="M108 128 Q116 126 124 130" stroke="#6b3800" stroke-width="2" stroke-linecap="round"/>
  <ellipse cx="84" cy="142" rx="10.5" ry="9" fill="#2b1700"/><ellipse cx="84" cy="142" rx="8.5" ry="7.3" fill="#d48822"/><ellipse cx="84" cy="142" rx="5.5" ry="5.2" fill="#7a4200"/><ellipse cx="81" cy="139" rx="2.2" ry="1.7" fill="#fff"/>
  <ellipse cx="116" cy="142" rx="10.5" ry="9" fill="#2b1700"/><ellipse cx="116" cy="142" rx="8.5" ry="7.3" fill="#d48822"/><ellipse cx="116" cy="142" rx="5.5" ry="5.2" fill="#7a4200"/><ellipse cx="113" cy="139" rx="2.2" ry="1.7" fill="#fff"/>
  <path d="M98 154 Q100 158 102 154" stroke="#be8b68" stroke-width="1.2" fill="none" stroke-linecap="round"/>
  <path d="M88 168 Q94 164 100 165 Q106 164 112 168" stroke="#c26e60" stroke-width="1.5" fill="none" stroke-linecap="round"/>
  <ellipse cx="76" cy="156" rx="8" ry="4.8" fill="#f08c7a" opacity="0.25"/>
  <ellipse cx="124" cy="156" rx="8" ry="4.8" fill="#f08c7a" opacity="0.25"/>
  <rect y="270" width="200" height="30" fill="#090507" opacity="0.94"/>
  <text x="100" y="284" text-anchor="middle" font-family="monospace" font-size="9" fill="#f0c67c" letter-spacing="3">LUCY</text>
  <text x="100" y="295" text-anchor="middle" font-family="monospace" font-size="7" fill="#9b8668" letter-spacing="2">CIRCUIT GUIDE</text>
</svg>
