<svg xmlns="http://www.w3.org/2000/svg" viewBox="0 0 200 300" width="200" height="300">
  <defs><linearGradient id="lbg" x1="0" y1="0" x2="1" y2="1"><stop offset="0%" stop-color="#19080f"/><stop offset="100%" stop-color="#070306"/></linearGradient><linearGradient id="lhair" x1="0" y1="0" x2="1" y2="1"><stop offset="0%" stop-color="#ff9fe0"/><stop offset="45%" stop-color="#d23aa3"/><stop offset="100%" stop-color="#360924"/></linearGradient></defs>
  <rect width="200" height="300" fill="url(#lbg)"/><ellipse cx="100" cy="110" rx="84" ry="92" fill="#cf6547" opacity="0.12"/><rect width="200" height="4" fill="#cf6547"/>
  <path d="M24 300 Q38 244 60 216 Q82 198 100 194 Q122 198 144 216 Q166 244 176 300 Z" fill="#13060d"/>
  <path d="M40 300 Q58 234 82 214 Q100 202 118 214 Q142 234 160 300 Z" fill="#78153d"/>
  <path d="M64 300 Q76 248 92 232 Q100 226 108 232 Q124 248 136 300 Z" fill="#f7d0dc"/>
  <path d="M88 188 L88 212 L112 212 L112 188 Z" fill="#f1c7bc"/>
  <ellipse cx="100" cy="150" rx="42" ry="48" fill="#f1c7bc"/>
  <path d="M58 148 Q52 96 78 62 Q100 40 128 58 Q150 82 142 148 Q124 132 100 128 Q76 132 58 148 Z" fill="url(#lhair)"/>
  <path d="M60 146 Q48 182 54 228 Q56 252 66 274 Q58 236 62 180 Q64 158 70 146 Z" fill="#c42d8f"/>
  <path d="M140 146 Q152 182 146 228 Q144 252 134 274 Q142 236 138 180 Q136 158 130 146 Z" fill="#c42d8f"/>
  <path d="M68 122 Q76 100 90 94 Q98 98 94 112 Q90 122 82 128 Z" fill="#ffb7e8"/>
  <path d="M92 120 Q102 96 112 96 Q118 102 114 118 Q106 124 100 128 Z" fill="#ef62bf"/>
  <path d="M112 120 Q122 100 132 104 Q136 112 130 122 Q122 126 116 130 Z" fill="#ff9bdc"/>
  <path d="M76 128 Q84 124 92 126" stroke="#57102f" stroke-width="2" stroke-linecap="round"/><path d="M108 126 Q116 124 124 128" stroke="#57102f" stroke-width="2" stroke-linecap="round"/>
  <ellipse cx="84" cy="140" rx="10.5" ry="9.5" fill="#180611"/><ellipse cx="84" cy="140" rx="8.5" ry="7.5" fill="#ef63be"/><ellipse cx="84" cy="140" rx="5.5" ry="5.5" fill="#781246"/><ellipse cx="81" cy="137" rx="2" ry="1.5" fill="#fff"/>
  <ellipse cx="116" cy="140" rx="10.5" ry="9.5" fill="#180611"/><ellipse cx="116" cy="140" rx="8.5" ry="7.5" fill="#ef63be"/><ellipse cx="116" cy="140" rx="5.5" ry="5.5" fill="#781246"/><ellipse cx="113" cy="137" rx="2" ry="1.5" fill="#fff"/>
  <path d="M98 154 Q100 158 102 154" stroke="#bf8b7c" stroke-width="1.2" fill="none" stroke-linecap="round"/>
  <path d="M88 168 Q94 162 100 164 Q106 162 112 168" stroke="#d66f8c" stroke-width="1.6" fill="none" stroke-linecap="round"/>
  <rect y="270" width="200" height="30" fill="#070306" opacity="0.94"/>
  <text x="100" y="284" text-anchor="middle" font-family="monospace" font-size="9" fill="#cf6547" letter-spacing="3">LUNA</text>
  <text x="100" y="295" text-anchor="middle" font-family="monospace" font-size="7" fill="#9d6a65" letter-spacing="2">NEON CLUB MASTER</text>
</svg>
