<svg xmlns="http://www.w3.org/2000/svg" viewBox="0 0 1200 800" preserveAspectRatio="xMidYMid slice" fill="none">
  <rect width="1200" height="800" fill="#05070e"/>
  <g stroke="#79f7ff" stroke-opacity="0.07" stroke-width="1">
    <path d="M0 80 H1200 M0 160 H1200 M0 240 H1200 M0 320 H1200 M0 400 H1200 M0 480 H1200 M0 560 H1200 M0 640 H1200 M0 720 H1200"/>
    <path d="M80 0 V800 M160 0 V800 M240 0 V800 M320 0 V800 M400 0 V800 M480 0 V800 M560 0 V800 M640 0 V800 M720 0 V800 M800 0 V800 M880 0 V800 M960 0 V800 M1040 0 V800 M1120 0 V800"/>
  </g>
  <circle cx="900" cy="160" r="140" fill="#79f7ff" fill-opacity="0.03"/>
</svg>
