<svg xmlns="http://www.w3.org/2000/svg" viewBox="0 0 1200 800" preserveAspectRatio="xMidYMid slice" fill="none">
  <defs>
    <linearGradient id="bg" x1="0" y1="0" x2="1" y2="1">
      <stop stop-color="#130b1a"/>
      <stop offset="1" stop-color="#08060d"/>
    </linearGradient>
    <linearGradient id="grid" x1="0" y1="0" x2="1" y2="1">
      <stop stop-color="#ffe39a" stop-opacity="0.08"/>
      <stop offset="1" stop-color="#79f7ff" stop-opacity="0.04"/>
    </linearGradient>
  </defs>

  <rect width="1200" height="800" fill="url(#bg)"/>
  <circle cx="920" cy="180" r="168" fill="#ffe39a" fill-opacity="0.04"/>
  <circle cx="250" cy="650" r="188" fill="#ff8ac6" fill-opacity="0.05"/>

  <g stroke="url(#grid)" stroke-width="1">
    <path d="M120 170 H1080"/>
    <path d="M120 310 H1080"/>
    <path d="M120 450 H1080"/>
    <path d="M120 590 H1080"/>
    <path d="M240 110 V650"/>
    <path d="M450 110 V650"/>
    <path d="M660 110 V650"/>
    <path d="M870 110 V650"/>
  </g>

  <g>
    <rect x="170" y="134" width="220" height="70" rx="22" fill="#ffe39a" fill-opacity="0.08" stroke="#ffe39a" stroke-opacity="0.16"/>
    <rect x="430" y="274" width="240" height="70" rx="22" fill="#79f7ff" fill-opacity="0.06" stroke="#79f7ff" stroke-opacity="0.16"/>
    <rect x="710" y="414" width="260" height="70" rx="22" fill="#ff8ac6" fill-opacity="0.07" stroke="#ff8ac6" stroke-opacity="0.16"/>
  </g>

  <g stroke="#ffe39a" stroke-opacity="0.5" stroke-width="3" stroke-linecap="round">
    <path d="M390 170 L430 170"/>
    <path d="M670 310 L710 310"/>
  </g>

  <g fill="#ffe39a">
    <circle cx="390" cy="170" r="8"/>
    <circle cx="670" cy="310" r="8"/>
    <circle cx="970" cy="450" r="9" fill-opacity="0.8"/>
  </g>
</svg>
