<svg xmlns="http://www.w3.org/2000/svg" viewBox="0 0 1200 800" preserveAspectRatio="xMidYMid slice" fill="none">
  <defs>
    <linearGradient id="bg" x1="0" y1="0" x2="1" y2="1">
      <stop stop-color="#0a0f1c"/>
      <stop offset="1" stop-color="#08060e"/>
    </linearGradient>
    <linearGradient id="line" x1="0" y1="0" x2="1" y2="0">
      <stop stop-color="#79f7ff" stop-opacity="0.1"/>
      <stop offset="1" stop-color="#ff8ac6" stop-opacity="0.18"/>
    </linearGradient>
  </defs>

  <rect width="1200" height="800" fill="url(#bg)"/>
  <circle cx="170" cy="172" r="94" fill="#79f7ff" fill-opacity="0.05"/>
  <circle cx="1030" cy="606" r="126" fill="#ff8ac6" fill-opacity="0.06"/>

  <g stroke="url(#line)" stroke-width="3" stroke-linecap="round">
    <path d="M160 180 C320 140 400 220 520 280 C660 350 770 350 890 300 C978 264 1042 214 1080 180"/>
    <path d="M180 210 C310 210 400 280 508 338 C668 422 800 430 986 366"/>
  </g>

  <g fill="#79f7ff">
    <circle cx="184" cy="208" r="8" fill-opacity="0.75"/>
    <circle cx="510" cy="337" r="7" fill-opacity="0.62"/>
    <circle cx="986" cy="366" r="9" fill-opacity="0.68"/>
  </g>

  <g fill="#ffe39a">
    <rect x="142" y="150" width="92" height="44" rx="22" fill-opacity="0.09"/>
    <rect x="460" y="308" width="116" height="44" rx="22" fill-opacity="0.08"/>
    <rect x="930" y="338" width="126" height="44" rx="22" fill-opacity="0.1"/>
  </g>
</svg>
